  0
SECTION
  2
BLOCKS
  0
ENDSEC
  0
SECTION
  2
ENTITIES
  0
LINE
  8
0
 10
10.1
 20
0
 11
10.1
 21
9.89999
  0
LINE
  8
0
 10
10.1
 20
9.89999
 11
19.9
 21
9.89999
  0
LINE
  8
0
 10
19.9
 20
9.89999
 11
19.9
 21
0
  0
LINE
  8
0
 10
19.9
 20
0
 11
20
 21
-0.100006
  0
LINE
  8
0
 10
20
 20
-0.100006
 11
30
 21
-0.100006
  0
LINE
  8
0
 10
30
 20
-0.100006
 11
30.1
 21
0
  0
LINE
  8
0
 10
30.1
 20
0
 11
30.1
 21
9.89999
  0
LINE
  8
0
 10
30.1
 20
9.89999
 11
39.9
 21
9.89999
  0
LINE
  8
0
 10
39.9
 20
9.89999
 11
39.9
 21
0
  0
LINE
  8
0
 10
39.9
 20
0
 11
40
 21
-0.100006
  0
LINE
  8
0
 10
40
 20
-0.100006
 11
50
 21
-0.100006
  0
LINE
  8
0
 10
50
 20
-0.100006
 11
50.1
 21
0
  0
LINE
  8
0
 10
50.1
 20
0
 11
50.1
 21
9.89999
  0
LINE
  8
0
 10
50.1
 20
9.89999
 11
59.9
 21
9.89999
  0
LINE
  8
0
 10
59.9
 20
9.89999
 11
59.9
 21
0
  0
LINE
  8
0
 10
59.9
 20
0
 11
60
 21
-0.100006
  0
LINE
  8
0
 10
60
 20
-0.100006
 11
70
 21
-0.100006
  0
LINE
  8
0
 10
70
 20
-0.100006
 11
70.1
 21
0
  0
LINE
  8
0
 10
70.1
 20
0
 11
70.1
 21
9.89999
  0
LINE
  8
0
 10
70.1
 20
9.89999
 11
79.9
 21
9.89999
  0
LINE
  8
0
 10
79.9
 20
9.89999
 11
79.9
 21
0
  0
LINE
  8
0
 10
79.9
 20
0
 11
80
 21
-0.100006
  0
LINE
  8
0
 10
80
 20
-0.100006
 11
81
 21
-0.100006
  0
LINE
  8
0
 10
81
 20
-0.100006
 11
81.0195
 21
-0.0980835
  0
LINE
  8
0
 10
81.0195
 20
-0.0980835
 11
82.9329
 21
0.282516
  0
LINE
  8
0
 10
82.9329
 20
0.282516
 11
82.969
 21
0.297455
  0
LINE
  8
0
 10
82.969
 20
0.297455
 11
84.5911
 21
1.38132
  0
LINE
  8
0
 10
84.5911
 20
1.38132
 11
84.6187
 21
1.40891
  0
LINE
  8
0
 10
84.6187
 20
1.40891
 11
85.7025
 21
3.03102
  0
LINE
  8
0
 10
85.7025
 20
3.03102
 11
85.7175
 21
3.06706
  0
LINE
  8
0
 10
85.7175
 20
3.06706
 11
86.0981
 21
4.98048
  0
LINE
  8
0
 10
86.0981
 20
4.98048
 11
86.1
 21
5
  0
LINE
  8
0
 10
86.1
 20
5
 11
86.1
 21
49
  0
LINE
  8
0
 10
86.1
 20
49
 11
86.0981
 21
49.0195
  0
LINE
  8
0
 10
86.0981
 20
49.0195
 11
85.7175
 21
50.9329
  0
LINE
  8
0
 10
85.7175
 20
50.9329
 11
85.7025
 21
50.969
  0
LINE
  8
0
 10
85.7025
 20
50.969
 11
84.6187
 21
52.5911
  0
LINE
  8
0
 10
84.6187
 20
52.5911
 11
84.5911
 21
52.6187
  0
LINE
  8
0
 10
84.5911
 20
52.6187
 11
82.969
 21
53.7025
  0
LINE
  8
0
 10
82.969
 20
53.7025
 11
82.9329
 21
53.7175
  0
LINE
  8
0
 10
82.9329
 20
53.7175
 11
81.0195
 21
54.0981
  0
LINE
  8
0
 10
81.0195
 20
54.0981
 11
81
 21
54.1
  0
LINE
  8
0
 10
81
 20
54.1
 11
5
 21
54.1
  0
LINE
  8
0
 10
5
 20
54.1
 11
4.98048
 21
54.0981
  0
LINE
  8
0
 10
4.98048
 20
54.0981
 11
3.06706
 21
53.7175
  0
LINE
  8
0
 10
3.06706
 20
53.7175
 11
3.03102
 21
53.7025
  0
LINE
  8
0
 10
3.03102
 20
53.7025
 11
1.40891
 21
52.6187
  0
LINE
  8
0
 10
1.40891
 20
52.6187
 11
1.38132
 21
52.5911
  0
LINE
  8
0
 10
1.38132
 20
52.5911
 11
0.297455
 21
50.969
  0
LINE
  8
0
 10
0.297455
 20
50.969
 11
0.282516
 21
50.9329
  0
LINE
  8
0
 10
0.282516
 20
50.9329
 11
-0.0980835
 21
49.0195
  0
LINE
  8
0
 10
-0.0980835
 20
49.0195
 11
-0.100006
 21
49
  0
LINE
  8
0
 10
-0.100006
 20
49
 11
-0.100006
 21
5
  0
LINE
  8
0
 10
-0.100006
 20
5
 11
-0.0980835
 21
4.98048
  0
LINE
  8
0
 10
-0.0980835
 20
4.98048
 11
0.282516
 21
3.06706
  0
LINE
  8
0
 10
0.282516
 20
3.06706
 11
0.297455
 21
3.03102
  0
LINE
  8
0
 10
0.297455
 20
3.03102
 11
1.38132
 21
1.40891
  0
LINE
  8
0
 10
1.38132
 20
1.40891
 11
1.40891
 21
1.38132
  0
LINE
  8
0
 10
1.40891
 20
1.38132
 11
3.03102
 21
0.297455
  0
LINE
  8
0
 10
3.03102
 20
0.297455
 11
3.06706
 21
0.282516
  0
LINE
  8
0
 10
3.06706
 20
0.282516
 11
4.98047
 21
-0.0980835
  0
LINE
  8
0
 10
4.98047
 20
-0.0980835
 11
4.99998
 21
-0.100006
  0
LINE
  8
0
 10
4.99998
 20
-0.100006
 11
10
 21
-0.100006
  0
LINE
  8
0
 10
10
 20
-0.100006
 11
10.1
 21
0
  0
LINE
  8
0
 10
54.0762
 20
43.4
 11
53.1525
 21
45
  0
LINE
  8
0
 10
53.1525
 20
45
 11
54.0762
 21
46.6
  0
LINE
  8
0
 10
54.0762
 20
46.6
 11
55.9238
 21
46.6
  0
LINE
  8
0
 10
55.9238
 20
46.6
 11
56.8475
 21
45
  0
LINE
  8
0
 10
56.8475
 20
45
 11
55.9238
 21
43.4
  0
LINE
  8
0
 10
55.9238
 20
43.4
 11
54.0762
 21
43.4
  0
LINE
  8
0
 10
44.134
 20
43.5
 11
43.2679
 21
45
  0
LINE
  8
0
 10
43.2679
 20
45
 11
44.134
 21
46.5
  0
LINE
  8
0
 10
44.134
 20
46.5
 11
45.866
 21
46.5
  0
LINE
  8
0
 10
45.866
 20
46.5
 11
46.732
 21
45
  0
LINE
  8
0
 10
46.732
 20
45
 11
45.866
 21
43.5
  0
LINE
  8
0
 10
45.866
 20
43.5
 11
44.134
 21
43.5
  0
LINE
  8
0
 10
34.1917
 20
43.6
 11
33.3834
 21
45
  0
LINE
  8
0
 10
33.3834
 20
45
 11
34.1917
 21
46.4
  0
LINE
  8
0
 10
34.1917
 20
46.4
 11
35.8083
 21
46.4
  0
LINE
  8
0
 10
35.8083
 20
46.4
 11
36.6166
 21
45
  0
LINE
  8
0
 10
36.6166
 20
45
 11
35.8083
 21
43.6
  0
LINE
  8
0
 10
35.8083
 20
43.6
 11
34.1917
 21
43.6
  0
LINE
  8
0
 10
24.2494
 20
43.7
 11
23.4989
 21
45
  0
LINE
  8
0
 10
23.4989
 20
45
 11
24.2494
 21
46.3
  0
LINE
  8
0
 10
24.2494
 20
46.3
 11
25.7505
 21
46.3
  0
LINE
  8
0
 10
25.7505
 20
46.3
 11
26.5011
 21
45
  0
LINE
  8
0
 10
26.5011
 20
45
 11
25.7505
 21
43.7
  0
LINE
  8
0
 10
25.7505
 20
43.7
 11
24.2494
 21
43.7
  0
LINE
  8
0
 10
14.3072
 20
43.8
 11
13.6144
 21
45
  0
LINE
  8
0
 10
13.6144
 20
45
 11
14.3072
 21
46.2
  0
LINE
  8
0
 10
14.3072
 20
46.2
 11
15.6928
 21
46.2
  0
LINE
  8
0
 10
15.6928
 20
46.2
 11
16.3856
 21
45
  0
LINE
  8
0
 10
16.3856
 20
45
 11
15.6928
 21
43.8
  0
LINE
  8
0
 10
15.6928
 20
43.8
 11
14.3072
 21
43.8
  0
LINE
  8
0
 10
59.0474
 20
35.35
 11
58.0947
 21
37
  0
LINE
  8
0
 10
58.0947
 20
37
 11
59.0474
 21
38.65
  0
LINE
  8
0
 10
59.0474
 20
38.65
 11
60.9526
 21
38.65
  0
LINE
  8
0
 10
60.9526
 20
38.65
 11
61.9052
 21
37
  0
LINE
  8
0
 10
61.9052
 20
37
 11
60.9526
 21
35.35
  0
LINE
  8
0
 10
60.9526
 20
35.35
 11
59.0474
 21
35.35
  0
LINE
  8
0
 10
49.1051
 20
35.45
 11
48.2102
 21
37
  0
LINE
  8
0
 10
48.2102
 20
37
 11
49.1051
 21
38.55
  0
LINE
  8
0
 10
49.1051
 20
38.55
 11
50.8949
 21
38.55
  0
LINE
  8
0
 10
50.8949
 20
38.55
 11
51.7898
 21
37
  0
LINE
  8
0
 10
51.7898
 20
37
 11
50.8949
 21
35.45
  0
LINE
  8
0
 10
50.8949
 20
35.45
 11
49.1051
 21
35.45
  0
LINE
  8
0
 10
39.1628
 20
35.55
 11
38.3257
 21
37
  0
LINE
  8
0
 10
38.3257
 20
37
 11
39.1628
 21
38.45
  0
LINE
  8
0
 10
39.1628
 20
38.45
 11
40.8371
 21
38.45
  0
LINE
  8
0
 10
40.8371
 20
38.45
 11
41.6743
 21
37
  0
LINE
  8
0
 10
41.6743
 20
37
 11
40.8371
 21
35.55
  0
LINE
  8
0
 10
40.8371
 20
35.55
 11
39.1628
 21
35.55
  0
LINE
  8
0
 10
29.2206
 20
35.65
 11
28.4412
 21
37
  0
LINE
  8
0
 10
28.4412
 20
37
 11
29.2206
 21
38.35
  0
LINE
  8
0
 10
29.2206
 20
38.35
 11
30.7794
 21
38.35
  0
LINE
  8
0
 10
30.7794
 20
38.35
 11
31.5588
 21
37
  0
LINE
  8
0
 10
31.5588
 20
37
 11
30.7794
 21
35.65
  0
LINE
  8
0
 10
30.7794
 20
35.65
 11
29.2206
 21
35.65
  0
LINE
  8
0
 10
19.2783
 20
35.75
 11
18.5566
 21
37
  0
LINE
  8
0
 10
18.5566
 20
37
 11
19.2783
 21
38.25
  0
LINE
  8
0
 10
19.2783
 20
38.25
 11
20.7217
 21
38.25
  0
LINE
  8
0
 10
20.7217
 20
38.25
 11
21.4434
 21
37
  0
LINE
  8
0
 10
21.4434
 20
37
 11
20.7217
 21
35.75
  0
LINE
  8
0
 10
20.7217
 20
35.75
 11
19.2783
 21
35.75
  0
LINE
  8
0
 10
9.33604
 20
35.85
 11
8.67209
 21
37
  0
LINE
  8
0
 10
8.67209
 20
37
 11
9.33604
 21
38.15
  0
LINE
  8
0
 10
9.33604
 20
38.15
 11
10.6639
 21
38.15
  0
LINE
  8
0
 10
10.6639
 20
38.15
 11
11.3279
 21
37
  0
LINE
  8
0
 10
11.3279
 20
37
 11
10.6639
 21
35.85
  0
LINE
  8
0
 10
10.6639
 20
35.85
 11
9.33604
 21
35.85
  0
LINE
  8
0
 10
54.5059
 20
26.4795
 11
54.0603
 21
26.7066
  0
LINE
  8
0
 10
54.0603
 20
26.7066
 11
53.7066
 21
27.0603
  0
LINE
  8
0
 10
53.7066
 20
27.0603
 11
53.4795
 21
27.5059
  0
LINE
  8
0
 10
53.4795
 20
27.5059
 11
53.4012
 21
28
  0
LINE
  8
0
 10
53.4012
 20
28
 11
53.4795
 21
28.494
  0
LINE
  8
0
 10
53.4795
 20
28.494
 11
53.7066
 21
28.9397
  0
LINE
  8
0
 10
53.7066
 20
28.9397
 11
54.0603
 21
29.2934
  0
LINE
  8
0
 10
54.0603
 20
29.2934
 11
54.5059
 21
29.5205
  0
LINE
  8
0
 10
54.5059
 20
29.5205
 11
55
 21
29.5988
  0
LINE
  8
0
 10
55
 20
29.5988
 11
55.494
 21
29.5205
  0
LINE
  8
0
 10
55.494
 20
29.5205
 11
55.9397
 21
29.2934
  0
LINE
  8
0
 10
55.9397
 20
29.2934
 11
56.2934
 21
28.9397
  0
LINE
  8
0
 10
56.2934
 20
28.9397
 11
56.5205
 21
28.494
  0
LINE
  8
0
 10
56.5205
 20
28.494
 11
56.5988
 21
28
  0
LINE
  8
0
 10
56.5988
 20
28
 11
56.5205
 21
27.5059
  0
LINE
  8
0
 10
56.5205
 20
27.5059
 11
56.2934
 21
27.0603
  0
LINE
  8
0
 10
56.2934
 20
27.0603
 11
55.9397
 21
26.7066
  0
LINE
  8
0
 10
55.9397
 20
26.7066
 11
55.494
 21
26.4795
  0
LINE
  8
0
 10
55.494
 20
26.4795
 11
55
 21
26.4012
  0
LINE
  8
0
 10
55
 20
26.4012
 11
54.5059
 21
26.4795
  0
LINE
  8
0
 10
44.5368
 20
26.5746
 11
44.1191
 21
26.7875
  0
LINE
  8
0
 10
44.1191
 20
26.7875
 11
43.7875
 21
27.1191
  0
LINE
  8
0
 10
43.7875
 20
27.1191
 11
43.5746
 21
27.5368
  0
LINE
  8
0
 10
43.5746
 20
27.5368
 11
43.5012
 21
28
  0
LINE
  8
0
 10
43.5012
 20
28
 11
43.5746
 21
28.4632
  0
LINE
  8
0
 10
43.5746
 20
28.4632
 11
43.7875
 21
28.8809
  0
LINE
  8
0
 10
43.7875
 20
28.8809
 11
44.1191
 21
29.2125
  0
LINE
  8
0
 10
44.1191
 20
29.2125
 11
44.5368
 21
29.4254
  0
LINE
  8
0
 10
44.5368
 20
29.4254
 11
45
 21
29.4987
  0
LINE
  8
0
 10
45
 20
29.4987
 11
45.4632
 21
29.4254
  0
LINE
  8
0
 10
45.4632
 20
29.4254
 11
45.8809
 21
29.2125
  0
LINE
  8
0
 10
45.8809
 20
29.2125
 11
46.2125
 21
28.8809
  0
LINE
  8
0
 10
46.2125
 20
28.8809
 11
46.4254
 21
28.4632
  0
LINE
  8
0
 10
46.4254
 20
28.4632
 11
46.4987
 21
28
  0
LINE
  8
0
 10
46.4987
 20
28
 11
46.4254
 21
27.5368
  0
LINE
  8
0
 10
46.4254
 20
27.5368
 11
46.2125
 21
27.1191
  0
LINE
  8
0
 10
46.2125
 20
27.1191
 11
45.8809
 21
26.7875
  0
LINE
  8
0
 10
45.8809
 20
26.7875
 11
45.4632
 21
26.5746
  0
LINE
  8
0
 10
45.4632
 20
26.5746
 11
45
 21
26.5012
  0
LINE
  8
0
 10
45
 20
26.5012
 11
44.5368
 21
26.5746
  0
LINE
  8
0
 10
34.5677
 20
26.6697
 11
34.1778
 21
26.8684
  0
LINE
  8
0
 10
34.1778
 20
26.8684
 11
33.8684
 21
27.1778
  0
LINE
  8
0
 10
33.8684
 20
27.1778
 11
33.6697
 21
27.5677
  0
LINE
  8
0
 10
33.6697
 20
27.5677
 11
33.6012
 21
28
  0
LINE
  8
0
 10
33.6012
 20
28
 11
33.6697
 21
28.4323
  0
LINE
  8
0
 10
33.6697
 20
28.4323
 11
33.8684
 21
28.8221
  0
LINE
  8
0
 10
33.8684
 20
28.8221
 11
34.1778
 21
29.1316
  0
LINE
  8
0
 10
34.1778
 20
29.1316
 11
34.5677
 21
29.3303
  0
LINE
  8
0
 10
34.5677
 20
29.3303
 11
35
 21
29.3988
  0
LINE
  8
0
 10
35
 20
29.3988
 11
35.4323
 21
29.3303
  0
LINE
  8
0
 10
35.4323
 20
29.3303
 11
35.8221
 21
29.1316
  0
LINE
  8
0
 10
35.8221
 20
29.1316
 11
36.1316
 21
28.8221
  0
LINE
  8
0
 10
36.1316
 20
28.8221
 11
36.3303
 21
28.4323
  0
LINE
  8
0
 10
36.3303
 20
28.4323
 11
36.3988
 21
28
  0
LINE
  8
0
 10
36.3988
 20
28
 11
36.3303
 21
27.5677
  0
LINE
  8
0
 10
36.3303
 20
27.5677
 11
36.1316
 21
27.1778
  0
LINE
  8
0
 10
36.1316
 20
27.1778
 11
35.8221
 21
26.8684
  0
LINE
  8
0
 10
35.8221
 20
26.8684
 11
35.4323
 21
26.6697
  0
LINE
  8
0
 10
35.4323
 20
26.6697
 11
35
 21
26.6012
  0
LINE
  8
0
 10
35
 20
26.6012
 11
34.5677
 21
26.6697
  0
LINE
  8
0
 10
24.5986
 20
26.7648
 11
24.2366
 21
26.9493
  0
LINE
  8
0
 10
24.2366
 20
26.9493
 11
23.9493
 21
27.2366
  0
LINE
  8
0
 10
23.9493
 20
27.2366
 11
23.7648
 21
27.5986
  0
LINE
  8
0
 10
23.7648
 20
27.5986
 11
23.7012
 21
28
  0
LINE
  8
0
 10
23.7012
 20
28
 11
23.7648
 21
28.4014
  0
LINE
  8
0
 10
23.7648
 20
28.4014
 11
23.9493
 21
28.7634
  0
LINE
  8
0
 10
23.9493
 20
28.7634
 11
24.2366
 21
29.0507
  0
LINE
  8
0
 10
24.2366
 20
29.0507
 11
24.5986
 21
29.2352
  0
LINE
  8
0
 10
24.5986
 20
29.2352
 11
25
 21
29.2988
  0
LINE
  8
0
 10
25
 20
29.2988
 11
25.4014
 21
29.2352
  0
LINE
  8
0
 10
25.4014
 20
29.2352
 11
25.7634
 21
29.0507
  0
LINE
  8
0
 10
25.7634
 20
29.0507
 11
26.0507
 21
28.7634
  0
LINE
  8
0
 10
26.0507
 20
28.7634
 11
26.2352
 21
28.4014
  0
LINE
  8
0
 10
26.2352
 20
28.4014
 11
26.2988
 21
28
  0
LINE
  8
0
 10
26.2988
 20
28
 11
26.2352
 21
27.5986
  0
LINE
  8
0
 10
26.2352
 20
27.5986
 11
26.0507
 21
27.2366
  0
LINE
  8
0
 10
26.0507
 20
27.2366
 11
25.7634
 21
26.9493
  0
LINE
  8
0
 10
25.7634
 20
26.9493
 11
25.4014
 21
26.7648
  0
LINE
  8
0
 10
25.4014
 20
26.7648
 11
25
 21
26.7012
  0
LINE
  8
0
 10
25
 20
26.7012
 11
24.5986
 21
26.7648
  0
LINE
  8
0
 10
14.6295
 20
26.8599
 11
14.2954
 21
27.0302
  0
LINE
  8
0
 10
14.2954
 20
27.0302
 11
14.0302
 21
27.2954
  0
LINE
  8
0
 10
14.0302
 20
27.2954
 11
13.8599
 21
27.6295
  0
LINE
  8
0
 10
13.8599
 20
27.6295
 11
13.8012
 21
28
  0
LINE
  8
0
 10
13.8012
 20
28
 11
13.8599
 21
28.3705
  0
LINE
  8
0
 10
13.8599
 20
28.3705
 11
14.0302
 21
28.7046
  0
LINE
  8
0
 10
14.0302
 20
28.7046
 11
14.2954
 21
28.9698
  0
LINE
  8
0
 10
14.2954
 20
28.9698
 11
14.6295
 21
29.1401
  0
LINE
  8
0
 10
14.6295
 20
29.1401
 11
15
 21
29.1987
  0
LINE
  8
0
 10
15
 20
29.1987
 11
15.3705
 21
29.1401
  0
LINE
  8
0
 10
15.3705
 20
29.1401
 11
15.7046
 21
28.9698
  0
LINE
  8
0
 10
15.7046
 20
28.9698
 11
15.9698
 21
28.7046
  0
LINE
  8
0
 10
15.9698
 20
28.7046
 11
16.1401
 21
28.3705
  0
LINE
  8
0
 10
16.1401
 20
28.3705
 11
16.1987
 21
28
  0
LINE
  8
0
 10
16.1987
 20
28
 11
16.1401
 21
27.6295
  0
LINE
  8
0
 10
16.1401
 20
27.6295
 11
15.9698
 21
27.2954
  0
LINE
  8
0
 10
15.9698
 20
27.2954
 11
15.7046
 21
27.0302
  0
LINE
  8
0
 10
15.7046
 20
27.0302
 11
15.3705
 21
26.8599
  0
LINE
  8
0
 10
15.3705
 20
26.8599
 11
15
 21
26.8012
  0
LINE
  8
0
 10
15
 20
26.8012
 11
14.6295
 21
26.8599
  0
LINE
  8
0
 10
59.4905
 20
18.4319
 11
59.0309
 21
18.6661
  0
LINE
  8
0
 10
59.0309
 20
18.6661
 11
58.6661
 21
19.0309
  0
LINE
  8
0
 10
58.6661
 20
19.0309
 11
58.4319
 21
19.4905
  0
LINE
  8
0
 10
58.4319
 20
19.4905
 11
58.3512
 21
20
  0
LINE
  8
0
 10
58.3512
 20
20
 11
58.4319
 21
20.5095
  0
LINE
  8
0
 10
58.4319
 20
20.5095
 11
58.6661
 21
20.9691
  0
LINE
  8
0
 10
58.6661
 20
20.9691
 11
59.0309
 21
21.3339
  0
LINE
  8
0
 10
59.0309
 20
21.3339
 11
59.4905
 21
21.568
  0
LINE
  8
0
 10
59.4905
 20
21.568
 11
60
 21
21.6488
  0
LINE
  8
0
 10
60
 20
21.6488
 11
60.5095
 21
21.568
  0
LINE
  8
0
 10
60.5095
 20
21.568
 11
60.9691
 21
21.3339
  0
LINE
  8
0
 10
60.9691
 20
21.3339
 11
61.3339
 21
20.9691
  0
LINE
  8
0
 10
61.3339
 20
20.9691
 11
61.568
 21
20.5095
  0
LINE
  8
0
 10
61.568
 20
20.5095
 11
61.6488
 21
20
  0
LINE
  8
0
 10
61.6488
 20
20
 11
61.568
 21
19.4905
  0
LINE
  8
0
 10
61.568
 20
19.4905
 11
61.3339
 21
19.0309
  0
LINE
  8
0
 10
61.3339
 20
19.0309
 11
60.9691
 21
18.6661
  0
LINE
  8
0
 10
60.9691
 20
18.6661
 11
60.5095
 21
18.4319
  0
LINE
  8
0
 10
60.5095
 20
18.4319
 11
60
 21
18.3512
  0
LINE
  8
0
 10
60
 20
18.3512
 11
59.4905
 21
18.4319
  0
LINE
  8
0
 10
49.5214
 20
18.5271
 11
49.0897
 21
18.747
  0
LINE
  8
0
 10
49.0897
 20
18.747
 11
48.747
 21
19.0897
  0
LINE
  8
0
 10
48.747
 20
19.0897
 11
48.5271
 21
19.5214
  0
LINE
  8
0
 10
48.5271
 20
19.5214
 11
48.4512
 21
20
  0
LINE
  8
0
 10
48.4512
 20
20
 11
48.5271
 21
20.4786
  0
LINE
  8
0
 10
48.5271
 20
20.4786
 11
48.747
 21
20.9103
  0
LINE
  8
0
 10
48.747
 20
20.9103
 11
49.0897
 21
21.253
  0
LINE
  8
0
 10
49.0897
 20
21.253
 11
49.5214
 21
21.4729
  0
LINE
  8
0
 10
49.5214
 20
21.4729
 11
50
 21
21.5488
  0
LINE
  8
0
 10
50
 20
21.5488
 11
50.4786
 21
21.4729
  0
LINE
  8
0
 10
50.4786
 20
21.4729
 11
50.9103
 21
21.253
  0
LINE
  8
0
 10
50.9103
 20
21.253
 11
51.253
 21
20.9103
  0
LINE
  8
0
 10
51.253
 20
20.9103
 11
51.4729
 21
20.4786
  0
LINE
  8
0
 10
51.4729
 20
20.4786
 11
51.5488
 21
20
  0
LINE
  8
0
 10
51.5488
 20
20
 11
51.4729
 21
19.5214
  0
LINE
  8
0
 10
51.4729
 20
19.5214
 11
51.253
 21
19.0897
  0
LINE
  8
0
 10
51.253
 20
19.0897
 11
50.9103
 21
18.747
  0
LINE
  8
0
 10
50.9103
 20
18.747
 11
50.4786
 21
18.5271
  0
LINE
  8
0
 10
50.4786
 20
18.5271
 11
50
 21
18.4512
  0
LINE
  8
0
 10
50
 20
18.4512
 11
49.5214
 21
18.5271
  0
LINE
  8
0
 10
39.5523
 20
18.6221
 11
39.1485
 21
18.8279
  0
LINE
  8
0
 10
39.1485
 20
18.8279
 11
38.8279
 21
19.1485
  0
LINE
  8
0
 10
38.8279
 20
19.1485
 11
38.6221
 21
19.5523
  0
LINE
  8
0
 10
38.6221
 20
19.5523
 11
38.5512
 21
20
  0
LINE
  8
0
 10
38.5512
 20
20
 11
38.6221
 21
20.4477
  0
LINE
  8
0
 10
38.6221
 20
20.4477
 11
38.8279
 21
20.8515
  0
LINE
  8
0
 10
38.8279
 20
20.8515
 11
39.1485
 21
21.1721
  0
LINE
  8
0
 10
39.1485
 20
21.1721
 11
39.5523
 21
21.3778
  0
LINE
  8
0
 10
39.5523
 20
21.3778
 11
40
 21
21.4487
  0
LINE
  8
0
 10
40
 20
21.4487
 11
40.4477
 21
21.3778
  0
LINE
  8
0
 10
40.4477
 20
21.3778
 11
40.8515
 21
21.1721
  0
LINE
  8
0
 10
40.8515
 20
21.1721
 11
41.1721
 21
20.8515
  0
LINE
  8
0
 10
41.1721
 20
20.8515
 11
41.3778
 21
20.4477
  0
LINE
  8
0
 10
41.3778
 20
20.4477
 11
41.4487
 21
20
  0
LINE
  8
0
 10
41.4487
 20
20
 11
41.3778
 21
19.5523
  0
LINE
  8
0
 10
41.3778
 20
19.5523
 11
41.1721
 21
19.1485
  0
LINE
  8
0
 10
41.1721
 20
19.1485
 11
40.8515
 21
18.8279
  0
LINE
  8
0
 10
40.8515
 20
18.8279
 11
40.4477
 21
18.6221
  0
LINE
  8
0
 10
40.4477
 20
18.6221
 11
40
 21
18.5512
  0
LINE
  8
0
 10
40
 20
18.5512
 11
39.5523
 21
18.6221
  0
LINE
  8
0
 10
29.5832
 20
18.7173
 11
29.2072
 21
18.9088
  0
LINE
  8
0
 10
29.2072
 20
18.9088
 11
28.9088
 21
19.2072
  0
LINE
  8
0
 10
28.9088
 20
19.2072
 11
28.7173
 21
19.5832
  0
LINE
  8
0
 10
28.7173
 20
19.5832
 11
28.6512
 21
20
  0
LINE
  8
0
 10
28.6512
 20
20
 11
28.7173
 21
20.4168
  0
LINE
  8
0
 10
28.7173
 20
20.4168
 11
28.9088
 21
20.7928
  0
LINE
  8
0
 10
28.9088
 20
20.7928
 11
29.2072
 21
21.0912
  0
LINE
  8
0
 10
29.2072
 20
21.0912
 11
29.5832
 21
21.2827
  0
LINE
  8
0
 10
29.5832
 20
21.2827
 11
30
 21
21.3488
  0
LINE
  8
0
 10
30
 20
21.3488
 11
30.4168
 21
21.2827
  0
LINE
  8
0
 10
30.4168
 20
21.2827
 11
30.7928
 21
21.0912
  0
LINE
  8
0
 10
30.7928
 20
21.0912
 11
31.0912
 21
20.7928
  0
LINE
  8
0
 10
31.0912
 20
20.7928
 11
31.2827
 21
20.4168
  0
LINE
  8
0
 10
31.2827
 20
20.4168
 11
31.3488
 21
20
  0
LINE
  8
0
 10
31.3488
 20
20
 11
31.2827
 21
19.5832
  0
LINE
  8
0
 10
31.2827
 20
19.5832
 11
31.0912
 21
19.2072
  0
LINE
  8
0
 10
31.0912
 20
19.2072
 11
30.7928
 21
18.9088
  0
LINE
  8
0
 10
30.7928
 20
18.9088
 11
30.4168
 21
18.7173
  0
LINE
  8
0
 10
30.4168
 20
18.7173
 11
30
 21
18.6512
  0
LINE
  8
0
 10
30
 20
18.6512
 11
29.5832
 21
18.7173
  0
LINE
  8
0
 10
19.6141
 20
18.8124
 11
19.266
 21
18.9897
  0
LINE
  8
0
 10
19.266
 20
18.9897
 11
18.9897
 21
19.266
  0
LINE
  8
0
 10
18.9897
 20
19.266
 11
18.8124
 21
19.6141
  0
LINE
  8
0
 10
18.8124
 20
19.6141
 11
18.7512
 21
20
  0
LINE
  8
0
 10
18.7512
 20
20
 11
18.8124
 21
20.3859
  0
LINE
  8
0
 10
18.8124
 20
20.3859
 11
18.9897
 21
20.734
  0
LINE
  8
0
 10
18.9897
 20
20.734
 11
19.266
 21
21.0103
  0
LINE
  8
0
 10
19.266
 20
21.0103
 11
19.6141
 21
21.1876
  0
LINE
  8
0
 10
19.6141
 20
21.1876
 11
20
 21
21.2487
  0
LINE
  8
0
 10
20
 20
21.2487
 11
20.3859
 21
21.1876
  0
LINE
  8
0
 10
20.3859
 20
21.1876
 11
20.734
 21
21.0103
  0
LINE
  8
0
 10
20.734
 20
21.0103
 11
21.0103
 21
20.734
  0
LINE
  8
0
 10
21.0103
 20
20.734
 11
21.1876
 21
20.3859
  0
LINE
  8
0
 10
21.1876
 20
20.3859
 11
21.2487
 21
20
  0
LINE
  8
0
 10
21.2487
 20
20
 11
21.1876
 21
19.6141
  0
LINE
  8
0
 10
21.1876
 20
19.6141
 11
21.0103
 21
19.266
  0
LINE
  8
0
 10
21.0103
 20
19.266
 11
20.734
 21
18.9897
  0
LINE
  8
0
 10
20.734
 20
18.9897
 11
20.3859
 21
18.8124
  0
LINE
  8
0
 10
20.3859
 20
18.8124
 11
20
 21
18.7512
  0
LINE
  8
0
 10
20
 20
18.7512
 11
19.6141
 21
18.8124
  0
LINE
  8
0
 10
9.64499
 20
18.9075
 11
9.32478
 21
19.0706
  0
LINE
  8
0
 10
9.32478
 20
19.0706
 11
9.07062
 21
19.3248
  0
LINE
  8
0
 10
9.07062
 20
19.3248
 11
8.90747
 21
19.645
  0
LINE
  8
0
 10
8.90747
 20
19.645
 11
8.85124
 21
20
  0
LINE
  8
0
 10
8.85124
 20
20
 11
8.90747
 21
20.355
  0
LINE
  8
0
 10
8.90747
 20
20.355
 11
9.07062
 21
20.6752
  0
LINE
  8
0
 10
9.07062
 20
20.6752
 11
9.32478
 21
20.9294
  0
LINE
  8
0
 10
9.32478
 20
20.9294
 11
9.64499
 21
21.0925
  0
LINE
  8
0
 10
9.64499
 20
21.0925
 11
10
 21
21.1488
  0
LINE
  8
0
 10
10
 20
21.1488
 11
10.355
 21
21.0925
  0
LINE
  8
0
 10
10.355
 20
21.0925
 11
10.6752
 21
20.9294
  0
LINE
  8
0
 10
10.6752
 20
20.9294
 11
10.9294
 21
20.6752
  0
LINE
  8
0
 10
10.9294
 20
20.6752
 11
11.0925
 21
20.355
  0
LINE
  8
0
 10
11.0925
 20
20.355
 11
11.1488
 21
20
  0
LINE
  8
0
 10
11.1488
 20
20
 11
11.0925
 21
19.645
  0
LINE
  8
0
 10
11.0925
 20
19.645
 11
10.9294
 21
19.3248
  0
LINE
  8
0
 10
10.9294
 20
19.3248
 11
10.6752
 21
19.0706
  0
LINE
  8
0
 10
10.6752
 20
19.0706
 11
10.355
 21
18.9075
  0
LINE
  8
0
 10
10.355
 20
18.9075
 11
10
 21
18.8512
  0
LINE
  8
0
 10
10
 20
18.8512
 11
9.64499
 21
18.9075
  0
ENDSEC
  0
SECTION
  2
OBJECTS
  0
DICTIONARY
  0
ENDSEC
  0
EOF
